# xmcd
#
# Track frame offsets: 
#        150
#        12779
#        24219
#        38506
#        47939
#        64331
#        76515
#        88255
#        98738
#        112232
#        122576
#        135545
#        147896
#        161281
#        176115
#        191631
#        199576
#        208987
#        219337
#        230746
#        241102
#        252364
#        266380
#        278089
#        288539
#        299712
#        311841
#
# Disc length: 4326 seconds
#
# Revision: 0
# Processed by: cddbd v1.5.2PL0 Copyright (c) Steve Scherf et al.
# Submitted via: ExactAudioCopy v0.95b3
#
DISCID=8e10e41b
DTITLE=Bob Wills and His Texas Playboys - Bob Wills and His Texas Playboys
DYEAR=1900
DGENRE=Country
TTITLE0=Texas Playboy Rag
TTITLE1=What Makes Bob Holler
TTITLE2=I'm A Ding Dong Daddy
TTITLE3=My Window Faces The South
TTITLE4=Lum and Abner Special (San Antonio Rose)
TTITLE5=Take Me Back To Tulsa
TTITLE6=Miss Molly
TTITLE7=Three Guitar Special
TTITLE8=Deep Water
TTITLE9=Bubbles In My Beer
TTITLE10=Still Waters Run The Deepest
TTITLE11=My Shoes Keep Walking Back To You
TTITLE12=My Confession
TTITLE13=Faded Love
TTITLE14=Steel Guitar Rag
TTITLE15=Cotton Eyed Joe
TTITLE16=Send Me A Red Rose
TTITLE17=Time Changes Everything
TTITLE18=I Ain't Got Nobody
TTITLE19=I Betcha My Heart I Love You
TTITLE20=I Laugh When I Think How I Cried Over You
TTITLE21=Sittin' On Top Of The World
TTITLE22=End Of The Line
TTITLE23=Stay All Night, Stay A Little Longer
TTITLE24=The Jobob Rag
TTITLE25=Big Balls In Cowtown
TTITLE26=New San Antonio Rose
EXTD=
EXTT0=
EXTT1=
EXTT2=
EXTT3=
EXTT4=
EXTT5=
EXTT6=
EXTT7=
EXTT8=
EXTT9=
EXTT10=
EXTT11=
EXTT12=
EXTT13=
EXTT14=
EXTT15=
EXTT16=
EXTT17=
EXTT18=
EXTT19=
EXTT20=
EXTT21=
EXTT22=
EXTT23=
EXTT24=
EXTT25=
EXTT26=
PLAYORDER=
